<svg xmlns="http://www.w3.org/2000/svg" xmlns:svg="http://www.w3.org/2000/svg" xmlns:xlink="http://www.w3.org/1999/xlink" id="Layer_1" width="185" height="188" x="0" y="0" enable-background="new 0 0 185 188" version="1.1" viewBox="0 0 185 188" xml:space="preserve"><metadata id="metadata235"/><defs id="defs233"><radialGradient id="SVGID_9_" cx="-310.265" cy="192.965" r="20.114" gradientTransform="matrix(0.498,0,0,0.498,172.2891,79.7388)" gradientUnits="userSpaceOnUse"><stop id="stop204" style="stop-color:#ffcf4f" offset="0"/><stop id="stop206" style="stop-color:#f4c236" offset="1"/></radialGradient><radialGradient id="SVGID_10_" cx="-322.317" cy="182.751" r="27.658" gradientTransform="matrix(0.498,0,0,0.498,172.2891,79.7388)" gradientUnits="userSpaceOnUse"><stop id="stop211" style="stop-color:#08a960" offset="0"/><stop id="stop213" style="stop-color:#07914b" offset="1"/></radialGradient><radialGradient id="SVGID_11_" cx="-312.865" cy="143.069" r="40.54" gradientTransform="matrix(0.498,0,0,0.498,172.2891,79.7388)" gradientUnits="userSpaceOnUse"><stop id="stop218" style="stop-color:#567fc0" offset="0"/><stop id="stop220" style="stop-color:#557fc0" offset="1"/></radialGradient><radialGradient id="SVGID_12_" cx="-300.801" cy="133.104" r="33.058" gradientTransform="matrix(0.498,0,0,0.498,172.2891,79.7388)" gradientUnits="userSpaceOnUse"><stop id="stop225" style="stop-color:#e14c40" offset="0"/><stop id="stop227" style="stop-color:#cd392d" offset="1"/></radialGradient><radialGradient id="SVGID_5_" cx="-310.583" cy="66.455" r="20.114" gradientTransform="matrix(0.498,0,0,0.498,172.2891,79.7388)" gradientUnits="userSpaceOnUse"><stop id="stop128" style="stop-color:#ccc" offset="0"/><stop id="stop130" style="stop-color:silver" offset="1"/></radialGradient><radialGradient id="SVGID_6_" cx="-322.635" cy="56.241" r="27.658" gradientTransform="matrix(0.498,0,0,0.498,172.2891,79.7388)" gradientUnits="userSpaceOnUse"><stop id="stop135" style="stop-color:#a0a0a0" offset="0"/><stop id="stop137" style="stop-color:#7b7b7b" offset="1"/></radialGradient><radialGradient id="SVGID_7_" cx="-313.183" cy="16.559" r="40.54" gradientTransform="matrix(0.498,0,0,0.498,172.2891,79.7388)" gradientUnits="userSpaceOnUse"><stop id="stop142" style="stop-color:#848484" offset="0"/><stop id="stop144" style="stop-color:#838383" offset="1"/></radialGradient><radialGradient id="SVGID_8_" cx="-301.119" cy="6.594" r="33.058" gradientTransform="matrix(0.498,0,0,0.498,172.2891,79.7388)" gradientUnits="userSpaceOnUse"><stop id="stop149" style="stop-color:#626262" offset="0"/><stop id="stop151" style="stop-color:#474747" offset="1"/></radialGradient><radialGradient id="SVGID_1_" cx="-310.583" cy="-60.055" r="20.114" gradientTransform="matrix(0.498,0,0,0.498,172.2891,79.7388)" gradientUnits="userSpaceOnUse"><stop id="stop52" style="stop-color:#ffcf4f" offset="0"/><stop id="stop54" style="stop-color:#f4c236" offset="1"/></radialGradient><radialGradient id="SVGID_2_" cx="-322.635" cy="-70.269" r="27.658" gradientTransform="matrix(0.498,0,0,0.498,172.2891,79.7388)" gradientUnits="userSpaceOnUse"><stop id="stop59" style="stop-color:#08a960" offset="0"/><stop id="stop61" style="stop-color:#07914b" offset="1"/></radialGradient><radialGradient id="SVGID_3_" cx="-313.183" cy="-109.951" r="40.54" gradientTransform="matrix(0.498,0,0,0.498,172.2891,79.7388)" gradientUnits="userSpaceOnUse"><stop id="stop66" style="stop-color:#567fc0" offset="0"/><stop id="stop68" style="stop-color:#557fc0" offset="1"/></radialGradient><radialGradient id="SVGID_4_" cx="-301.119" cy="-119.916" r="33.058" gradientTransform="matrix(0.498,0,0,0.498,172.2891,79.7388)" gradientUnits="userSpaceOnUse"><stop id="stop73" style="stop-color:#e14c40" offset="0"/><stop id="stop75" style="stop-color:#cd392d" offset="1"/></radialGradient><linearGradient id="linearGradient5576"><stop id="stop5578" offset="0" style="stop-color:#fff;stop-opacity:1"/><stop id="stop5580" offset="1" style="stop-color:#fff;stop-opacity:0"/></linearGradient><linearGradient id="linearGradient5514"><stop id="stop5516" offset="0" style="stop-color:#ff75a4;stop-opacity:1"/><stop id="stop5518" offset="1" style="stop-color:#ff1b69;stop-opacity:1"/></linearGradient><linearGradient id="linearGradient5506"><stop id="stop5508" offset="0" style="stop-color:#f619ff;stop-opacity:1"/><stop id="stop5510" offset="1" style="stop-color:#fedbff;stop-opacity:1"/></linearGradient><linearGradient id="linearGradient3992-4"><stop style="stop-color:#ffa1d0;stop-opacity:1" id="stop3994-9" offset="0"/><stop id="stop3996-4" offset=".374" style="stop-color:#ffa1d0;stop-opacity:1"/><stop style="stop-color:#ffd1e8;stop-opacity:1" id="stop3998-6" offset=".523"/><stop style="stop-color:#ffd1e8;stop-opacity:1" id="stop4000-0" offset="1"/></linearGradient><radialGradient id="radialGradient3650" cx="334.723" cy="289.432" r="109.687" fx="334.723" fy="289.432" gradientTransform="matrix(1.132980323111687,-0.4393344528711985,0.5330100703790491,1.374556258479647,-76.99964120264877,-90.99756931781689)" gradientUnits="userSpaceOnUse" xlink:href="#linearGradient3992-4"/><linearGradient id="linearGradient3664" x1="296.225" x2="312.842" y1="223.822" y2="221.044" gradientTransform="matrix(1.631412300283948,-0.06253244885931,0.0625324488593101,1.631412300283945,-109.5275854241534,-197.2704230970186)" gradientUnits="userSpaceOnUse" xlink:href="#linearGradient5576"/><radialGradient id="radialGradient3666" cx="334.723" cy="289.432" r="109.687" fx="334.723" fy="289.432" gradientTransform="matrix(1.132980323111687,-0.4393344528711985,0.5330100703790491,1.374556258479647,-76.99964120264877,-90.99756931781689)" gradientUnits="userSpaceOnUse" xlink:href="#linearGradient3992-4"/><radialGradient id="radialGradient3949" cx="334.723" cy="289.432" r="109.687" fx="334.723" fy="289.432" gradientTransform="matrix(1.132980323111687,-0.4393344528711985,0.5330100703790491,1.374556258479647,-76.99964120264877,-90.99756931781689)" gradientUnits="userSpaceOnUse" xlink:href="#linearGradient3992-4"/><radialGradient id="radialGradient3961" cx="334.723" cy="289.432" r="109.687" fx="334.723" fy="289.432" gradientTransform="matrix(1.132980323111687,-0.4393344528711985,0.5330100703790491,1.374556258479647,-76.99964120264877,-90.99756931781689)" gradientUnits="userSpaceOnUse" xlink:href="#linearGradient3992-4"/><radialGradient id="radialGradient4191" cx="334.723" cy="289.432" r="109.687" fx="334.723" fy="289.432" gradientTransform="matrix(1.132980323111687,-0.4393344528711985,0.5330100703790491,1.374556258479647,-76.99964120264877,-90.99756931781689)" gradientUnits="userSpaceOnUse" xlink:href="#linearGradient3992-4"/><radialGradient id="radialGradient4203" cx="334.723" cy="289.432" r="109.687" fx="334.723" fy="289.432" gradientTransform="matrix(1.132980323111687,-0.4393344528711985,0.5330100703790491,1.374556258479647,-76.99964120264877,-90.99756931781689)" gradientUnits="userSpaceOnUse" xlink:href="#linearGradient3992-4"/><radialGradient id="radialGradient4302" cx="334.723" cy="289.432" r="109.687" fx="334.723" fy="289.432" gradientTransform="matrix(1.132980323111687,-0.4393344528711985,0.5330100703790491,1.374556258479647,-76.99964120264877,-90.99756931781689)" gradientUnits="userSpaceOnUse" xlink:href="#linearGradient3992-4"/><radialGradient id="radialGradient4314" cx="334.723" cy="289.432" r="109.687" fx="334.723" fy="289.432" gradientTransform="matrix(1.132980323111687,-0.4393344528711985,0.5330100703790491,1.374556258479647,-76.99964120264877,-90.99756931781689)" gradientUnits="userSpaceOnUse" xlink:href="#linearGradient3992-4"/><radialGradient id="radialGradient4362" cx="334.723" cy="289.432" r="109.687" fx="334.723" fy="289.432" gradientTransform="matrix(1.132980323111687,-0.4393344528711985,0.5330100703790491,1.374556258479647,-76.99964120264877,-90.99756931781689)" gradientUnits="userSpaceOnUse" xlink:href="#linearGradient3992-4"/><radialGradient id="radialGradient4375" cx="334.723" cy="289.432" r="109.687" fx="334.723" fy="289.432" gradientTransform="matrix(1.132980323111687,-0.4393344528711985,0.5330100703790491,1.374556258479647,-76.99964120264877,-90.99756931781689)" gradientUnits="userSpaceOnUse" xlink:href="#linearGradient3992-4"/><radialGradient id="radialGradient4423" cx="334.723" cy="289.432" r="109.687" fx="334.723" fy="289.432" gradientTransform="matrix(1.132980323111687,-0.4393344528711985,0.5330100703790491,1.374556258479647,-76.99964120264877,-90.99756931781689)" gradientUnits="userSpaceOnUse" xlink:href="#linearGradient3992-4"/><linearGradient id="linearGradient4433" x1="296.225" x2="312.842" y1="223.822" y2="221.044" gradientTransform="matrix(1.631412300283948,-0.06253244885931,0.0625324488593101,1.631412300283945,-109.5275854241541,-197.2704230970186)" gradientUnits="userSpaceOnUse" xlink:href="#linearGradient5576"/><radialGradient id="radialGradient4435" cx="334.723" cy="289.432" r="109.687" fx="334.723" fy="289.432" gradientTransform="matrix(1.132980323111687,-0.4393344528711985,0.5330100703790491,1.374556258479647,-76.99964120264877,-90.99756931781689)" gradientUnits="userSpaceOnUse" xlink:href="#linearGradient3992-4"/><radialGradient id="radialGradient4483" cx="334.723" cy="289.432" r="109.687" fx="334.723" fy="289.432" gradientTransform="matrix(1.132980323111687,-0.4393344528711985,0.5330100703790491,1.374556258479647,-76.99964120264877,-90.99756931781689)" gradientUnits="userSpaceOnUse" xlink:href="#linearGradient3992-4"/><radialGradient id="radialGradient4495" cx="334.723" cy="289.432" r="109.687" fx="334.723" fy="289.432" gradientTransform="matrix(1.132980323111687,-0.4393344528711985,0.5330100703790491,1.374556258479647,-76.99964120264877,-90.99756931781689)" gradientUnits="userSpaceOnUse" xlink:href="#linearGradient3992-4"/><radialGradient id="radialGradient4543" cx="334.723" cy="289.432" r="109.687" fx="334.723" fy="289.432" gradientTransform="matrix(1.132980323111687,-0.4393344528711985,0.5330100703790491,1.374556258479647,-76.99964120264877,-90.99756931781689)" gradientUnits="userSpaceOnUse" xlink:href="#linearGradient3992-4"/><linearGradient id="linearGradient4553" x1="296.225" x2="312.842" y1="223.822" y2="221.044" gradientTransform="matrix(1.631412300283948,-0.06253244885931,0.0625324488593101,1.631412300283945,-109.5275854241541,-197.2704230970184)" gradientUnits="userSpaceOnUse" xlink:href="#linearGradient5576"/><radialGradient id="radialGradient4555" cx="334.723" cy="289.432" r="109.687" fx="334.723" fy="289.432" gradientTransform="matrix(1.132980323111687,-0.4393344528711985,0.5330100703790491,1.374556258479647,-76.99964120264877,-90.99756931781689)" gradientUnits="userSpaceOnUse" xlink:href="#linearGradient3992-4"/><radialGradient id="radialGradient4834" cx="334.723" cy="289.432" r="109.687" fx="334.723" fy="289.432" gradientTransform="matrix(1.132980323111687,-0.4393344528711985,0.5330100703790491,1.374556258479647,-76.99964120264877,-90.99756931781689)" gradientUnits="userSpaceOnUse" xlink:href="#linearGradient3992-4"/><radialGradient id="radialGradient4846" cx="334.723" cy="289.432" r="109.687" fx="334.723" fy="289.432" gradientTransform="matrix(1.132980323111687,-0.4393344528711985,0.5330100703790491,1.374556258479647,-76.99964120264877,-90.99756931781689)" gradientUnits="userSpaceOnUse" xlink:href="#linearGradient3992-4"/><radialGradient id="radialGradient4848" cx="334.723" cy="289.432" r="109.687" fx="334.723" fy="289.432" gradientTransform="matrix(1.132980323111687,-0.4393344528711985,0.5330100703790491,1.374556258479647,-76.99964120264877,-90.99756931781689)" gradientUnits="userSpaceOnUse" xlink:href="#linearGradient3992-4"/><radialGradient id="radialGradient4860" cx="334.723" cy="289.432" r="109.687" fx="334.723" fy="289.432" gradientTransform="matrix(1.132980323111687,-0.4393344528711985,0.5330100703790491,1.374556258479647,-76.99964120264877,-90.99756931781689)" gradientUnits="userSpaceOnUse" xlink:href="#linearGradient3992-4"/><radialGradient id="radialGradient4862" cx="334.723" cy="289.432" r="109.687" fx="334.723" fy="289.432" gradientTransform="matrix(1.132980323111687,-0.4393344528711985,0.5330100703790491,1.374556258479647,-76.99964120264877,-90.99756931781689)" gradientUnits="userSpaceOnUse" xlink:href="#linearGradient3992-4"/><radialGradient id="radialGradient4874" cx="334.723" cy="289.432" r="109.687" fx="334.723" fy="289.432" gradientTransform="matrix(1.132980323111687,-0.4393344528711985,0.5330100703790491,1.374556258479647,-76.99964120264877,-90.99756931781689)" gradientUnits="userSpaceOnUse" xlink:href="#linearGradient3992-4"/><radialGradient id="radialGradient4876" cx="334.723" cy="289.432" r="109.687" fx="334.723" fy="289.432" gradientTransform="matrix(1.132980323111687,-0.4393344528711985,0.5330100703790491,1.374556258479647,-76.99964120264877,-90.99756931781689)" gradientUnits="userSpaceOnUse" xlink:href="#linearGradient3992-4"/><radialGradient id="radialGradient4888" cx="334.723" cy="289.432" r="109.687" fx="334.723" fy="289.432" gradientTransform="matrix(1.132980323111687,-0.4393344528711985,0.5330100703790491,1.374556258479647,-76.99964120264877,-90.99756931781689)" gradientUnits="userSpaceOnUse" xlink:href="#linearGradient3992-4"/><radialGradient id="radialGradient4890" cx="334.723" cy="289.432" r="109.687" fx="334.723" fy="289.432" gradientTransform="matrix(1.132980323111687,-0.4393344528711985,0.5330100703790491,1.374556258479647,-76.99964120264877,-90.99756931781689)" gradientUnits="userSpaceOnUse" xlink:href="#linearGradient3992-4"/><radialGradient id="radialGradient4902" cx="334.723" cy="289.432" r="109.687" fx="334.723" fy="289.432" gradientTransform="matrix(1.132980323111687,-0.4393344528711985,0.5330100703790491,1.374556258479647,-76.99964120264877,-90.99756931781689)" gradientUnits="userSpaceOnUse" xlink:href="#linearGradient3992-4"/><radialGradient id="radialGradient4904" cx="334.723" cy="289.432" r="109.687" fx="334.723" fy="289.432" gradientTransform="matrix(1.132980323111687,-0.4393344528711985,0.5330100703790491,1.374556258479647,-76.99964120264877,-90.99756931781689)" gradientUnits="userSpaceOnUse" xlink:href="#linearGradient3992-4"/><radialGradient id="radialGradient4916" cx="334.723" cy="289.432" r="109.687" fx="334.723" fy="289.432" gradientTransform="matrix(1.132980323111687,-0.4393344528711985,0.5330100703790491,1.374556258479647,-76.99964120264877,-90.99756931781689)" gradientUnits="userSpaceOnUse" xlink:href="#linearGradient3992-4"/><radialGradient id="radialGradient5194" cx="334.723" cy="289.432" r="109.687" fx="334.723" fy="289.432" gradientTransform="matrix(1.132980323111687,-0.4393344528711985,0.5330100703790491,1.374556258479647,-76.99964120264877,-90.99756931781689)" gradientUnits="userSpaceOnUse" xlink:href="#linearGradient3992-4"/><linearGradient id="linearGradient5204" x1="296.225" x2="312.842" y1="223.822" y2="221.044" gradientTransform="matrix(1.631412300283948,-0.06253244885931,0.0625324488593101,1.631412300283945,-109.5275854241538,-197.2704230970186)" gradientUnits="userSpaceOnUse" xlink:href="#linearGradient5576"/><radialGradient id="radialGradient5206" cx="334.723" cy="289.432" r="109.687" fx="334.723" fy="289.432" gradientTransform="matrix(1.132980323111687,-0.4393344528711985,0.5330100703790491,1.374556258479647,-76.99964120264877,-90.99756931781689)" gradientUnits="userSpaceOnUse" xlink:href="#linearGradient3992-4"/><radialGradient id="radialGradient5208" cx="334.723" cy="289.432" r="109.687" fx="334.723" fy="289.432" gradientTransform="matrix(1.132980323111687,-0.4393344528711985,0.5330100703790491,1.374556258479647,-76.99964120264877,-90.99756931781689)" gradientUnits="userSpaceOnUse" xlink:href="#linearGradient3992-4"/><radialGradient id="radialGradient5220" cx="334.723" cy="289.432" r="109.687" fx="334.723" fy="289.432" gradientTransform="matrix(1.132980323111687,-0.4393344528711985,0.5330100703790491,1.374556258479647,-76.99964120264877,-90.99756931781689)" gradientUnits="userSpaceOnUse" xlink:href="#linearGradient3992-4"/><radialGradient id="radialGradient5222" cx="334.723" cy="289.432" r="109.687" fx="334.723" fy="289.432" gradientTransform="matrix(1.132980323111687,-0.4393344528711985,0.5330100703790491,1.374556258479647,-76.99964120264877,-90.99756931781689)" gradientUnits="userSpaceOnUse" xlink:href="#linearGradient3992-4"/><radialGradient id="radialGradient5234" cx="334.723" cy="289.432" r="109.687" fx="334.723" fy="289.432" gradientTransform="matrix(1.132980323111687,-0.4393344528711985,0.5330100703790491,1.374556258479647,-76.99964120264877,-90.99756931781689)" gradientUnits="userSpaceOnUse" xlink:href="#linearGradient3992-4"/><radialGradient id="radialGradient5236" cx="334.723" cy="289.432" r="109.687" fx="334.723" fy="289.432" gradientTransform="matrix(1.132980323111687,-0.4393344528711985,0.5330100703790491,1.374556258479647,-76.99964120264877,-90.99756931781689)" gradientUnits="userSpaceOnUse" xlink:href="#linearGradient3992-4"/><radialGradient id="radialGradient5248" cx="334.723" cy="289.432" r="109.687" fx="334.723" fy="289.432" gradientTransform="matrix(1.132980323111687,-0.4393344528711985,0.5330100703790491,1.374556258479647,-76.99964120264877,-90.99756931781689)" gradientUnits="userSpaceOnUse" xlink:href="#linearGradient3992-4"/><radialGradient id="radialGradient5250" cx="334.723" cy="289.432" r="109.687" fx="334.723" fy="289.432" gradientTransform="matrix(1.132980323111687,-0.4393344528711985,0.5330100703790491,1.374556258479647,-76.99964120264877,-90.99756931781689)" gradientUnits="userSpaceOnUse" xlink:href="#linearGradient3992-4"/><linearGradient id="linearGradient5260" x1="296.225" x2="312.842" y1="223.822" y2="221.044" gradientTransform="matrix(1.631412300283948,-0.06253244885931,0.0625324488593101,1.631412300283945,-109.5275854241541,-197.2704230970182)" gradientUnits="userSpaceOnUse" xlink:href="#linearGradient5576"/><radialGradient id="radialGradient5262" cx="334.723" cy="289.432" r="109.687" fx="334.723" fy="289.432" gradientTransform="matrix(1.132980323111687,-0.4393344528711985,0.5330100703790491,1.374556258479647,-76.99964120264877,-90.99756931781689)" gradientUnits="userSpaceOnUse" xlink:href="#linearGradient3992-4"/><radialGradient id="radialGradient5264" cx="334.723" cy="289.432" r="109.687" fx="334.723" fy="289.432" gradientTransform="matrix(1.132980323111687,-0.4393344528711985,0.5330100703790491,1.374556258479647,-76.99964120264877,-90.99756931781689)" gradientUnits="userSpaceOnUse" xlink:href="#linearGradient3992-4"/><radialGradient id="radialGradient5276" cx="334.723" cy="289.432" r="109.687" fx="334.723" fy="289.432" gradientTransform="matrix(1.132980323111687,-0.4393344528711985,0.5330100703790491,1.374556258479647,-76.99964120264877,-90.99756931781689)" gradientUnits="userSpaceOnUse" xlink:href="#linearGradient3992-4"/></defs><g id="layer4"><g id="g7106" transform="matrix(1.1446014,0,0,1.1446014,-13.375634,-3.9581364)"><g id="g7075" transform="translate(-0.40138,1.1320064)"><g id="g6919" transform="translate(-222.91183,-3.069596)"><path style="fill:#000;fill-opacity:1;fill-rule:evenodd;stroke:#000;stroke-width:5;stroke-miterlimit:4;stroke-dasharray:none;stroke-opacity:1" id="path7073" d="m 314.31892,39.030211 c -10e-4,-0.332185 -0.052,-0.659908 -0.15683,-0.981153 -11.12499,-29.9228467 -37.68479,2.119772 -45.30276,-3.507919 -7.89249,-5.833582 -1.37261,-21.961721 -4.11782,-25.7363927 -0.17158,-0.235917 -0.38157,-0.353502 -0.62464,-0.364599 -3.64605,-0.166532 -14.56626,23.6731917 -9.66992,32.9640297 3.58862,6.811133 15.33161,8.433034 26.91939,8.761499 l 14.50478,-7.539242 z"/><path style="fill:#f00000;fill-opacity:1;stroke:none" id="path4121" d="m 290.59101,28.799713 9.9161,10.757816 c 0,0 11.67767,-1.312965 11.56789,-2.950881 -0.58995,-8.802179 -6.78024,-10.011806 -6.78024,-10.011806 0,0 -11.37971,-2.45479 -14.70375,2.204871 z"/><path style="fill:#ff9b00;fill-opacity:1;stroke:none" id="path4119" d="m 281.00351,32.923976 c 2.90045,3.323705 7.52343,8.332907 10.63949,11.815169 4.59231,2.124832 7.08005,-1.769052 9.65373,-3.340077 L 290.16217,29.202001 c -5.41993,-1.700565 -8.17392,2.293801 -9.15866,3.721975 z"/><path style="fill:#f0ff0e;fill-opacity:1;stroke:none" id="path4117" d="m 270.89685,36.549023 c 2.46065,2.884446 6.87003,8.795853 9.50684,11.841029 4.41195,2.621799 8.12122,-2.483751 9.84768,-4.187364 l -10.0034,-10.902171 c -3.4886,-0.95119 -5.60658,1.271064 -9.35112,3.248506 z"/><path style="fill:#62ff9b;fill-opacity:1;stroke:none" id="path4115" d="m 264.7876,31.414262 c 1.31138,2.41155 -0.55309,13.028496 0.83043,15.535344 2.9469,3.04727 11.54455,1.543459 13.32247,1.094452 l -9.04238,-11.617533 c -2.94046,-1.156748 -3.68672,-5.996224 -5.11052,-5.012263 z"/><path style="fill:#0efff0;fill-opacity:1;stroke:none" id="path4113" d="m 262.75965,25.45013 c -1.54615,1.381694 -6.99797,12.508163 -8.51524,13.87455 -1.85868,3.561582 8.65786,6.460413 9.87951,8.214566 l 0.38241,-14.520125 c 0.57607,-3.579306 -1.15971,-6.134323 -1.74668,-7.568991 z"/><path style="fill:#0062ff;fill-opacity:1;stroke:none" id="path4111" d="m 261.9121,11.371889 c -0.0954,-0.447119 -8.30937,11.454462 -8.51325,27.110695 2.78365,-1.727771 4.77557,-7.921548 9.31425,-13.822939 0.42949,-5.338085 -0.0156,-9.605378 -0.801,-13.287756 z"/><path id="path6893" d="m 314.31892,39.030211 c -10e-4,-0.332185 -0.052,-0.659908 -0.15683,-0.981153 -11.12499,-29.9228467 -37.68479,2.119772 -45.30276,-3.507919 -7.89249,-5.833582 -1.37261,-21.961721 -4.11782,-25.7363927 -0.17158,-0.235917 -0.38157,-0.353502 -0.62464,-0.364599 -3.64605,-0.166532 -14.56626,23.6731917 -9.66992,32.9640297 3.58862,6.811133 15.33161,8.433034 26.91939,8.761499 l 14.50478,-7.539242 z" style="fill:none;fill-opacity:1;fill-rule:evenodd;stroke:#000;stroke-width:5;stroke-miterlimit:4;stroke-dasharray:none;stroke-opacity:1"/></g></g><g id="g7086" transform="matrix(-1,0,0,1,185.40138,1.1320064)"><g id="g7088" transform="translate(-222.91183,-3.069596)"><path id="path7090" d="m 314.31892,39.030211 c -10e-4,-0.332185 -0.052,-0.659908 -0.15683,-0.981153 -11.12499,-29.9228467 -37.68479,2.119772 -45.30276,-3.507919 -7.89249,-5.833582 -1.37261,-21.961721 -4.11782,-25.7363927 -0.17158,-0.235917 -0.38157,-0.353502 -0.62464,-0.364599 -3.64605,-0.166532 -14.56626,23.6731917 -9.66992,32.9640297 3.58862,6.811133 15.33161,8.433034 26.91939,8.761499 l 14.50478,-7.539242 z" style="fill:#000;fill-opacity:1;fill-rule:evenodd;stroke:#000;stroke-width:5;stroke-miterlimit:4;stroke-dasharray:none;stroke-opacity:1"/><path id="path7092" d="m 290.59101,28.799713 9.9161,10.757816 c 0,0 11.67767,-1.312965 11.56789,-2.950881 -0.58995,-8.802179 -6.78024,-10.011806 -6.78024,-10.011806 0,0 -11.37971,-2.45479 -14.70375,2.204871 z" style="fill:#f00000;fill-opacity:1;stroke:none"/><path id="path7094" d="m 281.00351,32.923976 c 2.90045,3.323705 7.52343,8.332907 10.63949,11.815169 4.59231,2.124832 7.08005,-1.769052 9.65373,-3.340077 L 290.16217,29.202001 c -5.41993,-1.700565 -8.17392,2.293801 -9.15866,3.721975 z" style="fill:#ff9b00;fill-opacity:1;stroke:none"/><path id="path7096" d="m 270.89685,36.549023 c 2.46065,2.884446 6.87003,8.795853 9.50684,11.841029 4.41195,2.621799 8.12122,-2.483751 9.84768,-4.187364 l -10.0034,-10.902171 c -3.4886,-0.95119 -5.60658,1.271064 -9.35112,3.248506 z" style="fill:#f0ff0e;fill-opacity:1;stroke:none"/><path id="path7098" d="m 264.7876,31.414262 c 1.31138,2.41155 -0.55309,13.028496 0.83043,15.535344 2.9469,3.04727 11.54455,1.543459 13.32247,1.094452 l -9.04238,-11.617533 c -2.94046,-1.156748 -3.68672,-5.996224 -5.11052,-5.012263 z" style="fill:#62ff9b;fill-opacity:1;stroke:none"/><path id="path7100" d="m 262.75965,25.45013 c -1.54615,1.381694 -6.99797,12.508163 -8.51524,13.87455 -1.85868,3.561582 8.65786,6.460413 9.87951,8.214566 l 0.38241,-14.520125 c 0.57607,-3.579306 -1.15971,-6.134323 -1.74668,-7.568991 z" style="fill:#0efff0;fill-opacity:1;stroke:none"/><path id="path7102" d="m 261.9121,11.371889 c -0.0954,-0.447119 -8.30937,11.454462 -8.51325,27.110695 2.78365,-1.727771 4.77557,-7.921548 9.31425,-13.822939 0.42949,-5.338085 -0.0156,-9.605378 -0.801,-13.287756 z" style="fill:#0062ff;fill-opacity:1;stroke:none"/><path style="fill:none;fill-opacity:1;fill-rule:evenodd;stroke:#000;stroke-width:5;stroke-miterlimit:4;stroke-dasharray:none;stroke-opacity:1" id="path7104" d="m 314.31892,39.030211 c -10e-4,-0.332185 -0.052,-0.659908 -0.15683,-0.981153 -11.12499,-29.9228467 -37.68479,2.119772 -45.30276,-3.507919 -7.89249,-5.833582 -1.37261,-21.961721 -4.11782,-25.7363927 -0.17158,-0.235917 -0.38157,-0.353502 -0.62464,-0.364599 -3.64605,-0.166532 -14.56626,23.6731917 -9.66992,32.9640297 3.58862,6.811133 15.33161,8.433034 26.91939,8.761499 l 14.50478,-7.539242 z"/></g></g></g></g><g id="layer2" style="display:inline"><path d="m 112.00958,91.573668 c 0.001,2.863466 -2.32037,5.185575 -5.18442,5.185575 -2.86347,0 -5.18499,-2.322109 -5.18442,-5.185575 -5.7e-4,-2.864042 2.32095,-5.18615 5.18442,-5.18615 2.86405,0 5.18557,2.322108 5.18442,5.18615 z" style="fill:#000;fill-opacity:1;stroke:#000;stroke-width:5;stroke-miterlimit:4;stroke-dasharray:none;stroke-opacity:1" id="path3161"/><path d="m 83.16423,91.573668 c 0.0014,2.863466 -2.320372,5.185575 -5.184421,5.185575 -2.863465,0 -5.184991,-2.322109 -5.184414,-5.185575 -5.77e-4,-2.864042 2.320949,-5.18615 5.184414,-5.18615 2.864049,0 5.185574,2.322108 5.184421,5.18615 z" style="fill:#000;fill-opacity:1;stroke:#000;stroke-width:5;stroke-miterlimit:4;stroke-dasharray:none;stroke-opacity:1" id="path3163"/><path id="goaty" d="m 78.006047,149.81759 c -4.665061,10.4281 -2.592685,14.24757 -1.664562,15.81338 1.01573,1.69517 4.81099,-11.92796 6.746367,-9.46413 2.299117,2.91679 0.336289,11.40637 1.015729,17.7135 0.672578,6.30713 3.397204,13.61627 4.049193,11.1593 1.345155,-5.09237 3.033463,-22.56567 6.403214,-17.7135 3.376615,4.85217 6.602242,15.66145 8.098382,11.64657 1.26967,-3.41093 -4.049189,-17.7135 -1.6883,-20.62343 2.36088,-2.90992 6.07378,8.97686 7.41894,5.57965 1.19685,-3.00731 2.3937,-9.43512 -0.6276,-14.74152" style="fill:none;fill-rule:evenodd;stroke:#000;stroke-width:4;stroke-miterlimit:4;stroke-dasharray:none;stroke-opacity:1"/><path d="M 90.314631,40.911724 C 69.633552,41.330369 55.356374,48.909222 46.64512,60.642958 30.129905,58.866804 16.405202,76.856885 16.405202,76.856885 c -3.43e-4,0 12.964965,6.486258 22.004272,1.050731 -1.646442,5.977707 -2.444614,12.428962 -2.444614,19.154739 0,31.000345 38.917104,53.777275 56.566779,53.777275 18.338041,0 55.775661,-22.77693 55.775661,-53.777275 0,-6.725777 -0.80297,-13.177032 -2.4501,-19.154739 9.03862,5.435527 21.98231,-1.050731 21.98231,-1.050731 0,0 -13.70549,-17.984591 -30.21796,-16.213927 -8.96313,-12.075515 -23.8216,-19.731234 -45.488214,-19.731234 -0.610811,0 -1.221621,-0.01235 -1.818705,0 z" style="fill:none;stroke:#000;stroke-width:7.37231398;stroke-linecap:round;stroke-linejoin:round;stroke-miterlimit:4;stroke-dasharray:none;stroke-opacity:1" id="head"/><path d="m 89.64532,88.832708 c 0.0034,8.590472 -6.961186,15.556842 -15.553387,15.556842 -8.590472,0 -15.55511,-6.96637 -15.553381,-15.556842 -0.0021,-8.592201 6.962909,-15.558569 15.553381,-15.558569 8.592201,0 15.556839,6.966368 15.553387,15.558569 z" style="fill:none;stroke:#000;stroke-width:5;stroke-linecap:round;stroke-linejoin:round;stroke-miterlimit:4;stroke-dasharray:none;stroke-opacity:1" id="path3157"/><path d="m 125.83412,88.832708 c 0.003,8.590472 -6.96119,15.556842 -15.55339,15.556842 -8.59047,0 -15.555108,-6.96637 -15.553379,-15.556842 -0.0021,-8.592201 6.962909,-15.558569 15.553379,-15.558569 8.5922,0 15.55684,6.966368 15.55339,15.558569 z" style="fill:none;stroke:#000;stroke-width:5;stroke-linecap:round;stroke-linejoin:round;stroke-miterlimit:4;stroke-dasharray:none;stroke-opacity:1" id="path3159"/><path d="m 103.52598,133.18939 c -1.57164,2.72462 -4.460976,4.00801 -6.451257,2.85502 -1.983418,-1.14613 -2.319707,-4.2894 -0.748071,-7.01402 1.571636,-2.72463 4.460978,-4.00802 6.451258,-2.85503 1.98342,1.14613 2.3197,4.28254 0.74807,7.01403 z" style="fill:#000;fill-opacity:1;stroke:#000;stroke-width:4;stroke-miterlimit:4;stroke-dasharray:none;stroke-opacity:1" id="path2398"/><path d="m 81.056392,133.18939 c 1.571636,2.72462 4.460975,4.00801 6.451256,2.85502 1.983418,-1.14613 2.319707,-4.2894 0.748071,-7.01402 -1.571635,-2.72463 -4.460974,-4.00802 -6.451255,-2.85503 -1.983418,1.14613 -2.319707,4.28254 -0.748072,7.01403 z" style="fill:#000;fill-opacity:1;stroke:#000;stroke-width:4;stroke-miterlimit:4;stroke-dasharray:none;stroke-opacity:1" id="path2412"/></g><g id="layer3" style="display:none"><g style="display:inline" id="g6967"><path id="path4880" d="m 128.55048,52.972825 c 11.48675,-0.349109 23.04935,-2.003032 26.60531,-8.752206 4.89636,-9.290838 -6.02252,-33.130561 -9.66857,-32.964029 l 0,0 c -0.24307,0.01112 -0.45441,0.128682 -0.62598,0.364599 -2.74522,3.774671 3.77467,19.90281 -4.11783,25.736392 -7.61797,5.627691 -34.17776,-26.414927 -45.302745,3.507919 -0.106515,0.326447 -0.15726,0.659572 -0.156848,0.997281" style="fill:none;fill-rule:evenodd;stroke:#000;stroke-width:7.37231398;stroke-miterlimit:4;stroke-dasharray:none;stroke-opacity:1"/><path id="path4882" d="M 87.080352,41.846653 C 87.078979,41.514468 87.02833,41.186745 86.923525,40.8655 75.79854,10.942654 49.238741,42.985272 41.620769,37.357581 33.728275,31.523999 40.248161,15.39586 37.502946,11.621189 37.33137,11.385272 37.121375,11.267687 36.878307,11.25659 33.232256,11.090058 22.312044,34.929781 27.208389,44.220619 c 3.588614,6.811133 15.331608,8.433034 26.919388,8.761499" style="fill:none;fill-rule:evenodd;stroke:#000;stroke-width:7.37231398;stroke-miterlimit:4;stroke-dasharray:none;stroke-opacity:1"/></g></g><g style="display:none" id="g4864"><path id="path4868" style="fill:#000;fill-opacity:1;stroke:#000;stroke-width:7.37231398;stroke-miterlimit:4;stroke-dasharray:none;stroke-opacity:1" d="m 111.21297,92.353328 c 0.001,2.863466 -2.32037,5.185575 -5.18442,5.185575 -2.86347,0 -5.18499,-2.322109 -5.18442,-5.185575 -5.7e-4,-2.864042 2.32095,-5.18615 5.18442,-5.18615 2.86405,0 5.18557,2.322108 5.18442,5.18615 z"/><path id="path4870" style="fill:#000;fill-opacity:1;stroke:#000;stroke-width:7.37231398;stroke-miterlimit:4;stroke-dasharray:none;stroke-opacity:1" d="m 82.36762,92.353328 c 0.0014,2.863466 -2.320372,5.185575 -5.184421,5.185575 -2.863465,0 -5.184991,-2.322109 -5.184414,-5.185575 -5.77e-4,-2.864042 2.320949,-5.18615 5.184414,-5.18615 2.864049,0 5.185574,2.322108 5.184421,5.18615 z"/><path style="fill:none;fill-rule:evenodd;stroke:#000;stroke-width:7.37231398;stroke-miterlimit:4;stroke-dasharray:none;stroke-opacity:1" id="path4872" d="m 72.429777,149.00403 c -4.665061,10.4281 -2.592684,14.24757 -1.664561,15.81338 1.015729,1.69517 4.810989,-11.92796 6.746366,-9.46413 2.299118,2.91679 0.336289,11.40637 1.015729,17.7135 0.672578,6.30713 3.397204,13.61627 4.049193,11.1593 1.345155,-5.09237 3.033463,-22.56567 6.403214,-17.7135 3.376615,4.85217 6.602243,15.66145 8.098385,11.64657 1.269662,-3.41093 -4.049192,-17.7135 -1.688307,-20.62343 2.360885,-2.90992 6.073784,8.97686 7.418944,5.57965 1.19685,-3.00731 2.3937,-9.43512 -0.6276,-14.74152"/><path id="path4874" style="fill:none;stroke:#000;stroke-width:7.37231398;stroke-linecap:round;stroke-linejoin:round;stroke-miterlimit:4;stroke-dasharray:none;stroke-opacity:1" d="M 89.518021,41.691384 C 68.836942,42.110029 54.559764,49.688882 45.84851,61.422618 29.333295,59.646464 15.608592,77.636545 15.608592,77.636545 c -3.43e-4,0 12.964965,6.486258 22.004272,1.050731 -1.646442,5.977707 -2.444614,12.428962 -2.444614,19.154739 0,31.000345 34.934051,52.184055 52.583726,52.184055 18.338034,0 59.758714,-21.18371 59.758714,-52.184055 0,-6.725777 -0.80297,-13.177032 -2.4501,-19.154739 9.03862,5.435527 21.98231,-1.050731 21.98231,-1.050731 0,0 -13.70549,-17.984591 -30.21796,-16.213927 -8.96313,-12.075515 -23.8216,-19.731234 -45.488214,-19.731234 -0.610811,0 -1.221621,-0.01235 -1.818705,0 z"/><path id="path4876" style="fill:none;stroke:#000;stroke-width:7.37231398;stroke-linecap:round;stroke-linejoin:round;stroke-miterlimit:4;stroke-dasharray:none;stroke-opacity:1" d="m 88.84871,89.612368 c 0.0034,8.590472 -6.961186,15.556842 -15.553387,15.556842 -8.590472,0 -15.55511,-6.96637 -15.553381,-15.556842 -0.0021,-8.592201 6.962909,-15.558569 15.553381,-15.558569 8.592201,0 15.556839,6.966368 15.553387,15.558569 z"/><path id="path4878" style="fill:none;stroke:#000;stroke-width:7.37231398;stroke-linecap:round;stroke-linejoin:round;stroke-miterlimit:4;stroke-dasharray:none;stroke-opacity:1" d="m 125.03751,89.612368 c 0.003,8.590472 -6.96119,15.556842 -15.55339,15.556842 -8.59047,0 -15.555108,-6.96637 -15.553379,-15.556842 -0.0021,-8.592201 6.962909,-15.558569 15.553379,-15.558569 8.5922,0 15.55684,6.966368 15.55339,15.558569 z"/><path id="path4884" style="fill:#000;fill-opacity:1;stroke:#000;stroke-width:7.37231398;stroke-miterlimit:4;stroke-dasharray:none;stroke-opacity:1" d="m 102.72937,133.96905 c -1.57164,2.72462 -4.460976,4.00801 -6.451257,2.85502 -1.983418,-1.14613 -2.319707,-4.2894 -0.748071,-7.01402 1.571636,-2.72463 4.460975,-4.00802 6.451258,-2.85503 1.98342,1.14613 2.3197,4.28254 0.74807,7.01403 z"/><path id="path4886" style="fill:#000;fill-opacity:1;stroke:#000;stroke-width:7.37231398;stroke-miterlimit:4;stroke-dasharray:none;stroke-opacity:1" d="m 80.259782,133.96905 c 1.571636,2.72462 4.460975,4.00801 6.451256,2.85502 1.983418,-1.14613 2.319707,-4.2894 0.748071,-7.01402 -1.571635,-2.72463 -4.460974,-4.00802 -6.451255,-2.85503 -1.983418,1.14613 -2.319707,4.28254 -0.748072,7.01403 z"/></g></svg>